<svg xmlns="http://www.w3.org/2000/svg" viewBox="0 0 40 40"><g fill="none" fill-rule="evenodd"><path fill="#4DFFFF" fill-opacity=".121" fill-rule="nonzero" d="M12,0 L12,8 L32,28 L40,28 L40,40 L27.0294373,40 L0,12.9705627 L0,0 L12,0 Z"/><path fill="#4DFFFF" fill-opacity=".7" fill-rule="nonzero" d="M12,0 L12,8 L32,28 L40,28 L40,29 L31.5857864,29 L11,8.41421356 L11,0 L12,0 Z"/><path fill="#080808" fill-rule="nonzero" d="M40,0 L40,28 L32,28 L12,8 L12,0 L40,0 Z"/><path fill="#1D252B" fill-rule="nonzero" d="M40,0 L40,24 L33.657,24 L16,6.343 L16,0 L40,0 Z"/></g></svg>